<?xml version="1.0" encoding="UTF-8" standalone="no"?>
<!DOCTYPE svg PUBLIC "-//W3C//DTD SVG 1.1//EN"
 "http://www.w3.org/Graphics/SVG/1.1/DTD/svg11.dtd">
<!-- Generated by graphviz version 2.43.0 (0)
 -->
<!-- Title: g Pages: 1 -->
<svg width="432pt" height="226pt"
 viewBox="0.00 0.00 432.00 226.00" xmlns="http://www.w3.org/2000/svg" xmlns:xlink="http://www.w3.org/1999/xlink">
<g id="graph0" class="graph" transform="scale(1 1) rotate(0) translate(4 222)">
<title>g</title>
<polygon fill="white" stroke="transparent" points="-4,4 -4,-222 428,-222 428,4 -4,4"/>
<g id="clust1" class="cluster">
<title>cluster_p0_i0</title>
<path fill="white" stroke="black" d="M20,-11.6C20,-11.6 404,-11.6 404,-11.6 410,-11.6 416,-17.6 416,-23.6 416,-23.6 416,-198 416,-198 416,-204 410,-210 404,-210 404,-210 20,-210 20,-210 14,-210 8,-204 8,-198 8,-198 8,-23.6 8,-23.6 8,-17.6 14,-11.6 20,-11.6"/>
</g>
<g id="clust2" class="cluster">
<title>cluster_p0_i0</title>
<path fill="white" stroke="black" d="M28,-59.2C28,-59.2 396,-59.2 396,-59.2 402,-59.2 408,-65.2 408,-71.2 408,-71.2 408,-190 408,-190 408,-196 402,-202 396,-202 396,-202 28,-202 28,-202 22,-202 16,-196 16,-190 16,-190 16,-71.2 16,-71.2 16,-65.2 22,-59.2 28,-59.2"/>
</g>
<g id="clust3" class="cluster">
<title>cluster_p0_i0_u0</title>
<path fill="white" stroke="black" d="M36,-124.4C36,-124.4 388,-124.4 388,-124.4 394,-124.4 400,-130.4 400,-136.4 400,-136.4 400,-182 400,-182 400,-188 394,-194 388,-194 388,-194 36,-194 36,-194 30,-194 24,-188 24,-182 24,-182 24,-136.4 24,-136.4 24,-130.4 30,-124.4 36,-124.4"/>
</g>
<!-- p0_i0_u0_p0 -->
<g id="node1" class="node">
<title>p0_i0_u0_p0</title>
<path fill="none" stroke="black" stroke-width="2" d="M164,-186C164,-186 44,-186 44,-186 38,-186 32,-180 32,-174 32,-174 32,-162 32,-162 32,-156 38,-150 44,-150 44,-150 164,-150 164,-150 170,-150 176,-156 176,-162 176,-162 176,-174 176,-174 176,-180 170,-186 164,-186"/>
<text text-anchor="middle" x="104" y="-163.6" font-family="Courier New" font-size="18.00">R</text>
</g>
<!-- p0_i0_u0_p0_s0 -->
<g id="node2" class="node">
<title>p0_i0_u0_p0_s0</title>
<ellipse fill="black" stroke="black" stroke-width="2" cx="98" cy="-134.2" rx="1.8" ry="1.8"/>
</g>
<!-- p0_i0_u0_p0&#45;&#45;p0_i0_u0_p0_s0 -->
<g id="edge1" class="edge">
<title>p0_i0_u0_p0&#45;&#45;p0_i0_u0_p0_s0</title>
<path fill="none" stroke="black" stroke-width="2" d="M98,-149.91C98,-144.39 98,-139.03 98,-136.23"/>
</g>
<!-- p0_i0_u0_p0_s1 -->
<g id="node3" class="node">
<title>p0_i0_u0_p0_s1</title>
<ellipse fill="black" stroke="black" stroke-width="2" cx="174" cy="-134.2" rx="1.8" ry="1.8"/>
</g>
<!-- p0_i0_u0_p0&#45;&#45;p0_i0_u0_p0_s1 -->
<g id="edge2" class="edge">
<title>p0_i0_u0_p0&#45;&#45;p0_i0_u0_p0_s1</title>
<path fill="none" stroke="black" stroke-width="2" d="M174,-149.91C174,-144.39 174,-139.03 174,-136.23"/>
</g>
<!-- p0_i0_u0_s0 -->
<g id="node7" class="node">
<title>p0_i0_u0_s0</title>
<ellipse fill="black" stroke="black" stroke-width="2" cx="98" cy="-114.6" rx="1.8" ry="1.8"/>
</g>
<!-- p0_i0_u0_p0_s0&#45;&#45;p0_i0_u0_s0 -->
<g id="edge5" class="edge">
<title>p0_i0_u0_p0_s0&#45;&#45;p0_i0_u0_s0</title>
<path fill="none" stroke="black" stroke-width="2" d="M98,-132.39C98,-128.75 98,-120.56 98,-116.7"/>
</g>
<!-- p0_i0_u0_s1 -->
<g id="node8" class="node">
<title>p0_i0_u0_s1</title>
<ellipse fill="black" stroke="black" stroke-width="2" cx="174" cy="-114.6" rx="1.8" ry="1.8"/>
</g>
<!-- p0_i0_u0_p0_s1&#45;&#45;p0_i0_u0_s1 -->
<g id="edge6" class="edge">
<title>p0_i0_u0_p0_s1&#45;&#45;p0_i0_u0_s1</title>
<path fill="none" stroke="black" stroke-width="2" d="M174,-132.39C174,-128.75 174,-120.56 174,-116.7"/>
</g>
<!-- p0_i0_u0_p1 -->
<g id="node4" class="node">
<title>p0_i0_u0_p1</title>
<path fill="none" stroke="black" stroke-width="2" d="M380,-186C380,-186 260,-186 260,-186 254,-186 248,-180 248,-174 248,-174 248,-162 248,-162 248,-156 254,-150 260,-150 260,-150 380,-150 380,-150 386,-150 392,-156 392,-162 392,-162 392,-174 392,-174 392,-180 386,-186 380,-186"/>
<text text-anchor="middle" x="320" y="-163.6" font-family="Courier New" font-size="18.00">S</text>
</g>
<!-- p0_i0_u0_p1_s0 -->
<g id="node5" class="node">
<title>p0_i0_u0_p1_s0</title>
<ellipse fill="black" stroke="black" stroke-width="2" cx="250" cy="-134.2" rx="1.8" ry="1.8"/>
</g>
<!-- p0_i0_u0_p1&#45;&#45;p0_i0_u0_p1_s0 -->
<g id="edge3" class="edge">
<title>p0_i0_u0_p1&#45;&#45;p0_i0_u0_p1_s0</title>
<path fill="none" stroke="black" stroke-width="2" d="M250,-149.91C250,-144.39 250,-139.03 250,-136.23"/>
</g>
<!-- p0_i0_u0_p1_s1 -->
<g id="node6" class="node">
<title>p0_i0_u0_p1_s1</title>
<ellipse fill="black" stroke="black" stroke-width="2" cx="326" cy="-134.2" rx="1.8" ry="1.8"/>
</g>
<!-- p0_i0_u0_p1&#45;&#45;p0_i0_u0_p1_s1 -->
<g id="edge4" class="edge">
<title>p0_i0_u0_p1&#45;&#45;p0_i0_u0_p1_s1</title>
<path fill="none" stroke="black" stroke-width="2" d="M326,-149.91C326,-144.39 326,-139.03 326,-136.23"/>
</g>
<!-- p0_i0_u0_s2 -->
<g id="node9" class="node">
<title>p0_i0_u0_s2</title>
<ellipse fill="black" stroke="black" stroke-width="2" cx="250" cy="-114.6" rx="1.8" ry="1.8"/>
</g>
<!-- p0_i0_u0_p1_s0&#45;&#45;p0_i0_u0_s2 -->
<g id="edge7" class="edge">
<title>p0_i0_u0_p1_s0&#45;&#45;p0_i0_u0_s2</title>
<path fill="none" stroke="black" stroke-width="2" d="M250,-132.39C250,-128.75 250,-120.56 250,-116.7"/>
</g>
<!-- p0_i0_u0_s3 -->
<g id="node10" class="node">
<title>p0_i0_u0_s3</title>
<ellipse fill="black" stroke="black" stroke-width="2" cx="326" cy="-114.6" rx="1.8" ry="1.8"/>
</g>
<!-- p0_i0_u0_p1_s1&#45;&#45;p0_i0_u0_s3 -->
<g id="edge8" class="edge">
<title>p0_i0_u0_p1_s1&#45;&#45;p0_i0_u0_s3</title>
<path fill="none" stroke="black" stroke-width="2" d="M326,-132.39C326,-128.75 326,-120.56 326,-116.7"/>
</g>
<!-- p0_i0_u0_t0 -->
<g id="node14" class="node">
<title>p0_i0_u0_t0</title>
<ellipse fill="black" stroke="black" stroke-width="2" cx="98" cy="-97" rx="1.8" ry="1.8"/>
</g>
<!-- p0_i0_u0_s0&#45;&#45;p0_i0_u0_t0 -->
<g id="edge9" class="edge">
<title>p0_i0_u0_s0&#45;&#45;p0_i0_u0_t0</title>
<path fill="none" stroke="black" stroke-width="2" d="M98,-112.72C98,-109.31 98,-102.17 98,-98.82"/>
</g>
<!-- p0_i0_u0_t1 -->
<g id="node15" class="node">
<title>p0_i0_u0_t1</title>
<ellipse fill="black" stroke="black" stroke-width="2" cx="174" cy="-97" rx="1.8" ry="1.8"/>
</g>
<!-- p0_i0_u0_s1&#45;&#45;p0_i0_u0_t1 -->
<g id="edge10" class="edge">
<title>p0_i0_u0_s1&#45;&#45;p0_i0_u0_t1</title>
<path fill="none" stroke="black" stroke-width="2" d="M174,-112.72C174,-109.31 174,-102.17 174,-98.82"/>
</g>
<!-- p0_i0_u0_t2 -->
<g id="node16" class="node">
<title>p0_i0_u0_t2</title>
<ellipse fill="black" stroke="black" stroke-width="2" cx="250" cy="-97" rx="1.8" ry="1.8"/>
</g>
<!-- p0_i0_u0_s2&#45;&#45;p0_i0_u0_t2 -->
<g id="edge11" class="edge">
<title>p0_i0_u0_s2&#45;&#45;p0_i0_u0_t2</title>
<path fill="none" stroke="black" stroke-width="2" d="M250,-112.72C250,-109.31 250,-102.17 250,-98.82"/>
</g>
<!-- p0_i0_u0_t3 -->
<g id="node17" class="node">
<title>p0_i0_u0_t3</title>
<ellipse fill="black" stroke="black" stroke-width="2" cx="326" cy="-97" rx="1.8" ry="1.8"/>
</g>
<!-- p0_i0_u0_s3&#45;&#45;p0_i0_u0_t3 -->
<g id="edge12" class="edge">
<title>p0_i0_u0_s3&#45;&#45;p0_i0_u0_t3</title>
<path fill="none" stroke="black" stroke-width="2" d="M326,-112.72C326,-109.31 326,-102.17 326,-98.82"/>
</g>
<!-- p0_i0_u0_n0 -->
<g id="node11" class="node">
<title>p0_i0_u0_n0</title>
<ellipse fill="black" stroke="black" stroke-width="2" cx="98" cy="-74.2" rx="1.8" ry="1.8"/>
</g>
<!-- p0_i0_s0 -->
<g id="node18" class="node">
<title>p0_i0_s0</title>
<ellipse fill="black" stroke="black" stroke-width="2" cx="98" cy="-44.2" rx="1.8" ry="1.8"/>
</g>
<!-- p0_i0_u0_n0&#45;&#45;p0_i0_s0 -->
<g id="edge17" class="edge">
<title>p0_i0_u0_n0&#45;&#45;p0_i0_s0</title>
<path fill="none" stroke="black" stroke-width="2" d="M98,-72.23C98,-66.81 98,-51.69 98,-46.21"/>
</g>
<!-- p0_i0_u0_n1 -->
<g id="node12" class="node">
<title>p0_i0_u0_n1</title>
<polygon fill="black" stroke="black" stroke-width="2" points="212,-81.2 205,-70.7 219,-70.7 212,-81.2"/>
</g>
<!-- p0_i0_s1 -->
<g id="node19" class="node">
<title>p0_i0_s1</title>
<polygon fill="black" stroke="black" stroke-width="2" points="212,-37.2 219,-47.7 205,-47.7 212,-37.2"/>
</g>
<!-- p0_i0_u0_n1&#45;&#45;p0_i0_s1 -->
<g id="edge18" class="edge">
<title>p0_i0_u0_n1&#45;&#45;p0_i0_s1</title>
<path fill="none" stroke="black" stroke-width="2" d="M212,-70.52C212,-64.76 212,-53.68 212,-47.91"/>
</g>
<!-- p0_i0_u0_n2 -->
<g id="node13" class="node">
<title>p0_i0_u0_n2</title>
<ellipse fill="black" stroke="black" stroke-width="2" cx="326" cy="-74.2" rx="1.8" ry="1.8"/>
</g>
<!-- p0_i0_s2 -->
<g id="node20" class="node">
<title>p0_i0_s2</title>
<ellipse fill="black" stroke="black" stroke-width="2" cx="326" cy="-44.2" rx="1.8" ry="1.8"/>
</g>
<!-- p0_i0_u0_n2&#45;&#45;p0_i0_s2 -->
<g id="edge19" class="edge">
<title>p0_i0_u0_n2&#45;&#45;p0_i0_s2</title>
<path fill="none" stroke="black" stroke-width="2" d="M326,-72.23C326,-66.81 326,-51.69 326,-46.21"/>
</g>
<!-- p0_i0_u0_t0&#45;&#45;p0_i0_u0_n0 -->
<g id="edge13" class="edge">
<title>p0_i0_u0_t0&#45;&#45;p0_i0_u0_n0</title>
<path fill="none" stroke="black" stroke-width="2" d="M98,-94.9C98,-90.49 98,-80.33 98,-76.1"/>
</g>
<!-- p0_i0_u0_t1&#45;&#45;p0_i0_u0_n1 -->
<g id="edge14" class="edge">
<title>p0_i0_u0_t1&#45;&#45;p0_i0_u0_n1</title>
<path fill="none" stroke="black" stroke-width="2" d="M176.04,-97C183.94,-97 212,-97 212,-97 212,-97 212,-88.09 212,-81.41"/>
</g>
<!-- p0_i0_u0_t2&#45;&#45;p0_i0_u0_n1 -->
<g id="edge15" class="edge">
<title>p0_i0_u0_t2&#45;&#45;p0_i0_u0_n1</title>
<path fill="none" stroke="black" stroke-width="2" d="M250,-95.2C250,-89.77 250,-74 250,-74 250,-74 227.27,-74 216.97,-74"/>
</g>
<!-- p0_i0_u0_t3&#45;&#45;p0_i0_u0_n2 -->
<g id="edge16" class="edge">
<title>p0_i0_u0_t3&#45;&#45;p0_i0_u0_n2</title>
<path fill="none" stroke="black" stroke-width="2" d="M326,-94.9C326,-90.49 326,-80.33 326,-76.1"/>
</g>
<!-- p0_i0_t0 -->
<g id="node21" class="node">
<title>p0_i0_t0</title>
<ellipse fill="black" stroke="black" stroke-width="2" cx="98" cy="-21.4" rx="1.8" ry="1.8"/>
</g>
<!-- p0_i0_s0&#45;&#45;p0_i0_t0 -->
<g id="edge20" class="edge">
<title>p0_i0_s0&#45;&#45;p0_i0_t0</title>
<path fill="none" stroke="black" stroke-width="2" d="M98,-42.1C98,-37.69 98,-27.53 98,-23.3"/>
</g>
<!-- p0_i0_t1 -->
<g id="node22" class="node">
<title>p0_i0_t1</title>
<ellipse fill="black" stroke="black" stroke-width="2" cx="326" cy="-21.4" rx="1.8" ry="1.8"/>
</g>
<!-- p0_i0_s2&#45;&#45;p0_i0_t1 -->
<g id="edge21" class="edge">
<title>p0_i0_s2&#45;&#45;p0_i0_t1</title>
<path fill="none" stroke="black" stroke-width="2" d="M326,-42.1C326,-37.69 326,-27.53 326,-23.3"/>
</g>
<!-- p0_s0 -->
<g id="node23" class="node">
<title>p0_s0</title>
<ellipse fill="black" stroke="black" stroke-width="2" cx="98" cy="-1.8" rx="1.8" ry="1.8"/>
</g>
<!-- p0_i0_t0&#45;&#45;p0_s0 -->
<g id="edge22" class="edge">
<title>p0_i0_t0&#45;&#45;p0_s0</title>
<path fill="none" stroke="black" stroke-width="2" d="M98,-19.59C98,-15.95 98,-7.76 98,-3.9"/>
</g>
<!-- p0_s1 -->
<g id="node24" class="node">
<title>p0_s1</title>
<ellipse fill="black" stroke="black" stroke-width="2" cx="326" cy="-1.8" rx="1.8" ry="1.8"/>
</g>
<!-- p0_i0_t1&#45;&#45;p0_s1 -->
<g id="edge23" class="edge">
<title>p0_i0_t1&#45;&#45;p0_s1</title>
<path fill="none" stroke="black" stroke-width="2" d="M326,-19.59C326,-15.95 326,-7.76 326,-3.9"/>
</g>
</g>
</svg>
